HIERARCHY
ROOT character_B_root
{
	OFFSET 0.000000 0.000000 0.000000
	CHANNELS 6 Xposition Yposition Zposition Xrotation Yrotation Zrotation
	JOINT character_B_pelvis
	{
		OFFSET 0.000000 0.000000 0.000000
		CHANNELS 3 Xrotation Yrotation Zrotation
		JOINT character_B_spine
		{
			OFFSET -0.005949 0.551378 0.000000
			CHANNELS 3 Xrotation Yrotation Zrotation
			JOINT character_B_head
			{
				OFFSET -0.011221 0.241134 0.000000
				CHANNELS 3 Xrotation Yrotation Zrotation
				JOINT character_B_nose
				{
					OFFSET -0.004159 -0.142665 -0.000261
					CHANNELS 3 Xrotation Yrotation Zrotation
					End Site
					{
						OFFSET 0.000000 0.050000 0.000000
					}
				}
			}
			JOINT character_B_left_shoulder
			{
				OFFSET 0.093188 -0.066956 0.092540
				CHANNELS 3 Xrotation Yrotation Zrotation
				JOINT character_B_left_elbow
				{
					OFFSET 0.026481 -0.252143 -0.089385
					CHANNELS 3 Xrotation Yrotation Zrotation
					JOINT character_B_left_wrist
					{
						OFFSET -0.001396 -0.164778 -0.154831
						CHANNELS 3 Xrotation Yrotation Zrotation
						End Site
						{
							OFFSET 0.000000 0.050000 0.000000
						}
					}
				}
			}
			JOINT character_B_right_shoulder
			{
				OFFSET -0.052646 -0.054758 0.152841
				CHANNELS 3 Xrotation Yrotation Zrotation
				JOINT character_B_right_elbow
				{
					OFFSET -0.025750 -0.252567 -0.055740
					CHANNELS 3 Xrotation Yrotation Zrotation
					JOINT character_B_right_wrist
					{
						OFFSET 0.022565 -0.178373 -0.161123
						CHANNELS 3 Xrotation Yrotation Zrotation
						End Site
						{
							OFFSET 0.000000 0.050000 0.000000
						}
					}
				}
			}
		}
		JOINT character_B_left_hip
		{
			OFFSET 0.053047 -0.014449 0.105832
			CHANNELS 3 Xrotation Yrotation Zrotation
			JOINT character_B_left_knee
			{
				OFFSET 0.010852 -0.388560 0.128200
				CHANNELS 3 Xrotation Yrotation Zrotation
				JOINT character_B_left_ankle
				{
					OFFSET -0.005897 -0.374408 0.161260
					CHANNELS 3 Xrotation Yrotation Zrotation
					JOINT character_B_left_big_toe
					{
						OFFSET 0.012109 -0.098215 0.034452
						CHANNELS 3 Xrotation Yrotation Zrotation
						End Site
						{
							OFFSET 0.000000 0.050000 0.000000
						}
					}
					JOINT character_B_left_small_toe
					{
						OFFSET 0.041617 -0.095586 0.019459
						CHANNELS 3 Xrotation Yrotation Zrotation
						End Site
						{
							OFFSET 0.000000 0.050000 0.000000
						}
					}
					JOINT character_B_left_heel
					{
						OFFSET -0.014884 -0.052778 0.025198
						CHANNELS 3 Xrotation Yrotation Zrotation
						End Site
						{
							OFFSET 0.000000 0.050000 0.000000
						}
					}
				}
			}
		}
		JOINT character_B_right_hip
		{
			OFFSET -0.043381 -0.011457 0.270438
			CHANNELS 3 Xrotation Yrotation Zrotation
			JOINT character_B_right_knee
			{
				OFFSET 0.014721 -0.382947 0.164918
				CHANNELS 3 Xrotation Yrotation Zrotation
				JOINT character_B_right_ankle
				{
					OFFSET 0.029970 -0.363014 0.179744
					CHANNELS 3 Xrotation Yrotation Zrotation
					JOINT character_B_right_big_toe
					{
						OFFSET 0.007171 -0.100675 0.041990
						CHANNELS 3 Xrotation Yrotation Zrotation
						End Site
						{
							OFFSET 0.000000 0.050000 0.000000
						}
					}
					JOINT character_B_right_small_toe
					{
						OFFSET -0.022736 -0.093093 0.035638
						CHANNELS 3 Xrotation Yrotation Zrotation
						End Site
						{
							OFFSET 0.000000 0.050000 0.000000
						}
					}
					JOINT character_B_right_heel
					{
						OFFSET 0.012696 -0.052984 0.028899
						CHANNELS 3 Xrotation Yrotation Zrotation
						End Site
						{
							OFFSET 0.000000 0.050000 0.000000
						}
					}
				}
			}
		}
	}
}
MOTION
Frames: 7
Frame Time: 0.03333333
0.296631 -0.232160 1.444441 0.000000 0.000000 0.000000 -0.212227 3.477147 -1.215058 24.843327 -21.734490 4.098080 -5.477645 19.043927 3.438386 0.000000 0.000000 0.000000 -19.119417 12.369336 25.563872 -11.799809 -12.800244 2.475801 -0.000000 0.000000 0.000000 -6.016783 19.141922 -26.370731 -22.505244 16.256279 -2.245081 0.000000 0.000000 0.000000 2.178462 -3.334346 1.464357 -43.962516 0.249699 -9.259535 11.490913 44.042411 -9.562763 0.000000 0.000000 -0.000000 0.000000 0.000000 -0.000000 0.000000 0.000000 -0.000000 4.163595 1.554768 11.520801 -5.956297 -0.605540 -3.356986 -22.443643 19.134809 -16.823189 -0.000000 0.000000 -0.000000 -0.000000 0.000000 -0.000000 -0.000000 0.000000 -0.000000
0.282712 -0.223891 1.427536 0.000000 0.000000 0.000000 -0.252429 3.629579 -0.697709 25.675174 -21.827910 4.583824 -11.255296 18.842824 4.280769 -0.000000 0.000000 -0.000000 -20.048096 11.018999 28.744325 -11.259651 -14.206790 1.994915 -0.000000 0.000000 -0.000000 -6.451422 18.994197 -28.117160 -23.571187 20.009110 -6.156266 0.000000 0.000000 0.000000 2.059715 -3.565813 0.789673 -40.564948 0.294186 -3.020786 12.328826 42.381782 -9.268112 -0.000000 0.000000 0.000000 -0.000000 0.000000 0.000000 -0.000000 0.000000 0.000000 7.436286 1.272061 9.978714 -12.090874 0.543815 -1.191716 -23.056864 21.430908 -17.905890 0.000000 0.000000 -0.000000 0.000000 0.000000 -0.000000 0.000000 0.000000 -0.000000
0.268785 -0.216007 1.405965 0.000000 0.000000 0.000000 -0.843570 3.923011 -0.238317 27.238726 -22.164243 5.393892 -16.981238 18.835188 5.004046 0.000000 0.000000 0.000000 -18.836214 11.938834 27.848206 -5.888840 -15.824546 2.710454 0.000000 0.000000 -0.000000 -8.209519 19.476009 -29.511822 -23.679502 24.240055 -10.497626 -0.000000 0.000000 -0.000000 1.715572 -4.187974 -0.525083 -33.591298 0.529237 3.496189 10.911138 46.131859 -14.889075 -0.000000 0.000000 0.000000 -0.000000 0.000000 0.000000 -0.000000 0.000000 0.000000 10.169938 0.649513 8.607335 -17.057674 1.274897 0.727842 -21.893180 23.639217 -17.979967 -0.000000 0.000000 0.000000 -0.000000 0.000000 0.000000 -0.000000 0.000000 0.000000
0.256730 -0.210030 1.366682 0.000000 0.000000 0.000000 -1.401886 4.392453 -0.178799 23.767477 -21.997353 5.870059 -10.527005 18.348745 2.217895 0.000000 0.000000 -0.000000 -12.636265 13.446718 21.124422 12.170709 -13.265552 -0.722722 0.000000 0.000000 -0.000000 -2.307637 18.034946 -31.008542 -20.157287 26.734508 -13.642112 -0.000000 0.000000 -0.000000 -0.308473 -5.268468 -2.486636 -24.229806 1.362878 9.706742 12.587399 53.776668 -25.329627 0.000000 0.000000 0.000000 0.000000 0.000000 0.000000 0.000000 0.000000 0.000000 12.227232 -0.376646 7.367292 -21.512074 1.975154 3.445597 -19.282082 23.339853 -19.710157 -0.000000 0.000000 -0.000000 -0.000000 0.000000 -0.000000 -0.000000 0.000000 -0.000000
0.244386 -0.205293 1.291227 0.000000 0.000000 0.000000 -0.509928 4.597433 -0.669251 23.722329 -21.786795 7.570549 -7.504407 18.252534 0.261650 0.000000 0.000000 0.000000 -9.833448 16.505819 10.735113 29.300235 -7.702618 -4.714326 0.000000 0.000000 0.000000 1.156835 16.198054 -29.628483 -12.610220 26.610181 -15.395195 -0.000000 0.000000 0.000000 -5.736277 -5.801158 -3.452623 -12.959760 2.592002 11.951674 18.214530 59.583876 -39.253657 -0.000000 0.000000 -0.000000 -0.000000 0.000000 -0.000000 -0.000000 0.000000 -0.000000 6.727534 -1.846206 6.020690 -20.387294 2.039100 5.806898 -12.981970 17.814270 -22.748536 -0.000000 0.000000 0.000000 -0.000000 0.000000 0.000000 -0.000000 0.000000 0.000000
0.234557 -0.196227 1.193229 0.000000 0.000000 0.000000 0.104742 4.332238 -0.854439 21.902720 -20.820296 7.815312 -4.002999 17.329966 -1.500473 0.000000 0.000000 -0.000000 -2.061075 18.881036 -3.321116 35.473280 1.985705 -14.025530 0.000000 0.000000 0.000000 5.887498 13.878429 -26.311297 -0.877277 20.657728 -8.047351 0.000000 0.000000 0.000000 -9.057393 -5.780759 -4.427938 -3.954656 3.204680 11.079262 27.435453 65.738450 -56.571866 -0.000000 0.000000 0.000000 -0.000000 0.000000 0.000000 -0.000000 0.000000 0.000000 1.245973 -2.887189 4.038324 -18.779516 1.884655 7.875909 -3.632177 2.600711 -20.196328 -0.000000 0.000000 0.000000 -0.000000 0.000000 0.000000 -0.000000 0.000000 0.000000
0.229410 -0.185573 1.111640 0.000000 0.000000 0.000000 0.241890 3.717094 -0.697236 19.566656 -19.253099 7.553837 0.205059 15.863476 -3.087824 0.000000 0.000000 0.000000 5.181083 19.177137 -16.627050 35.891072 11.041371 -24.008234 0.000000 0.000000 0.000000 11.783590 11.037353 -23.399540 5.664373 13.281753 4.926346 -0.000000 0.000000 -0.000000 -10.556624 -5.493946 -6.155751 6.630870 4.102141 9.997328 115.243701 48.312963 -159.456182 0.000000 0.000000 0.000000 0.000000 0.000000 0.000000 0.000000 0.000000 0.000000 -2.397235 -3.243727 1.967377 -18.950752 1.823869 10.626565 1.133186 -3.708276 -13.254937 0.000000 0.000000 0.000000 0.000000 0.000000 0.000000 0.000000 0.000000 0.000000
